<svg t="1641434468119" class="icon" viewBox="0 0 1024 1024" version="1.1" xmlns="http://www.w3.org/2000/svg" p-id="6569" width="128" height="128"><path d="M866.531556 912.213333V130.048L756.906667 56.888889 357.205333 235.292444v138.012445L136.305778 450.218667v461.994666H113.777778V967.111111h72.135111V482.247111l292.977778-96.028444V967.111111h202.808889v-59.448889h-45.056V377.059556L530.204444 313.002667l-119.011555 41.472V267.264L699.733333 139.207111v827.847111h202.865778v-54.897778h-36.067555v0.056889z m-644.551112-306.460444l211.797334-68.608V445.667556L221.980444 518.883556v86.869333z m0 118.897778l211.797334-45.738667v-91.420444l-211.797334 54.840888v82.375112z m0 123.505777l211.797334-27.420444v-91.477333l-211.797334 32.028444v86.869333z m0 118.897778l211.797334-4.551111V870.968889l-211.797334 9.159111V967.111111z" p-id="6570"></path></svg>