<svg t="1637381350031" class="icon" viewBox="0 0 1024 1024" version="1.1" xmlns="http://www.w3.org/2000/svg" p-id="3016" width="80" height="80"><path d="M985.6 548.266667c-8.533333 8.533333-21.333333 8.533333-29.866667 0l-91.733333-91.733333 0 450.133333c0 17.066667-14.933333 32-32 32L192 938.666667c-17.066667 0-32-14.933333-32-32 0-4.266667 2.133333-6.4 2.133333-8.533333-2.133333-4.266667-2.133333-8.533333-2.133333-12.8l0-426.666667c0 0 0-2.133333 0-2.133333l-91.733333 91.733333c-8.533333 8.533333-21.333333 8.533333-29.866667 0-8.533333-8.533333-8.533333-21.333333 0-29.866667l448-448C492.8 64 503.466667 61.866667 512 66.133333c8.533333-4.266667 19.2-4.266667 25.6 2.133333l448 448C994.133333 526.933333 994.133333 539.733333 985.6 548.266667zM629.333333 618.666667 629.333333 618.666667c-6.4-59.733333-55.466667-106.666667-117.333333-106.666667s-110.933333 46.933333-115.2 106.666667l-2.133333 0 0 277.333333 234.666667 0L629.333333 618.666667z" p-id="3017"></path></svg>