<svg t="1636358632209" class="icon" viewBox="0 0 1024 1024" version="1.1" xmlns="http://www.w3.org/2000/svg" p-id="33996" width="80" height="80"><path d="M989.866667 235.52c0-44.373333-30.72-78.506667-71.68-92.16L880.64 136.533333h-3.413333c-105.813333 0-208.213333-37.546667-286.72-105.813333-10.24-13.653333-27.306667-23.893333-40.96-30.72h-68.266667l-6.826667 3.413333c-17.066667 6.826667-30.72 17.066667-40.96 30.72-81.92 64.853333-180.906667 102.4-286.72 102.4h-3.413333l-37.546667 6.826667C64.853333 157.013333 34.133333 194.56 34.133333 238.933333V474.453333c13.653333 119.466667 68.266667 232.106667 153.6 317.44 78.506667 78.506667 167.253333 146.773333 259.413334 208.213334 6.826667 6.826667 17.066667 13.653333 27.306666 17.066666l37.546667 6.826667h6.826667c27.306667-3.413333 51.2-20.48 54.613333-23.893333 0 0 34.133333-20.48 75.093333-51.2l17.066667-13.653334c6.826667-3.413333 13.653333-10.24 20.48-13.653333 6.826667-6.826667 13.653333-10.24 23.893333-17.066667l17.066667-13.653333c17.066667-13.653333 37.546667-30.72 54.613333-44.373333l10.24-6.826667c6.826667-6.826667 13.653333-10.24 17.066667-17.066667l6.826667-6.826666 23.893333-23.893334c85.333333-85.333333 139.946667-197.973333 150.186667-317.44v-238.933333z m-64.853334 232.106667c-10.24 105.813333-58.026667 204.8-133.12 279.893333l-6.826666 3.413333c-6.826667 6.826667-10.24 13.653333-17.066667 20.48l-6.826667 6.826667c-6.826667 3.413333-10.24 10.24-17.066666 13.653333l-10.24 6.826667-51.2 40.96-13.653334 13.653333c-6.826667 6.826667-13.653333 10.24-20.48 17.066667-6.826667 3.413333-13.653333 10.24-20.48 17.066667l-13.653333 10.24c-40.96 30.72-71.68 51.2-75.093333 51.2-6.826667 3.413333-17.066667 10.24-23.893334 10.24-10.24 0-17.066667-3.413333-23.893333-10.24l-3.413333-3.413334C399.36 887.466667 314.026667 819.2 235.52 744.106667c-75.093333-75.093333-122.88-174.08-133.12-279.893334V232.106667c0-20.48 17.066667-37.546667 37.546667-37.546667h34.133333c112.64-6.826667 221.866667-47.786667 307.2-122.88l3.413333-3.413333 10.24-10.24h34.133334l10.24 10.24 6.826666 10.24C631.466667 153.6 853.333333 204.8 853.333333 204.8h34.133334c20.48 0 37.546667 17.066667 37.546666 34.133333v228.693334zM512 204.8c-95.573333 0-170.666667 75.093333-170.666667 170.666667 0 81.92 58.026667 150.186667 136.533334 167.253333V819.2c0 20.48 13.653333 34.133333 34.133333 34.133333s34.133333-13.653333 34.133333-34.133333v-102.4h34.133334c20.48 0 34.133333-13.653333 34.133333-34.133333s-13.653333-34.133333-34.133333-34.133334h-34.133334v-102.4-3.413333c78.506667-17.066667 136.533333-85.333333 136.533334-167.253333 0-95.573333-75.093333-170.666667-170.666667-170.666667z m0 273.066667c-58.026667 0-102.4-44.373333-102.4-102.4s44.373333-102.4 102.4-102.4 102.4 44.373333 102.4 102.4-44.373333 102.4-102.4 102.4z" p-id="33997"></path></svg>